<svg width="200" height="66" viewBox="0 0 200 66" fill="none" xmlns="http://www.w3.org/2000/svg">
<g clip-path="url(#clip0_17_45)">
<path d="M200 0H0V3.76717H200V0Z" fill="white"/>
<path d="M200 61.6874H0V65.4546H200V61.6874Z" fill="white"/>
<path d="M141.589 15.3983H135.514V53.07H141.589V15.3983Z" fill="white"/>
<path d="M151.402 34.2341L156.075 53.07H162.617L157.944 34.2341H151.402Z" fill="white"/>
<path d="M151.402 34.2341L160.748 15.3983H153.271L143.692 34.2341H151.402Z" fill="white"/>
<path d="M14.9533 15.3983H8.87854V53.07H14.9533V15.3983Z" fill="white"/>
<path d="M24.7664 34.2341L29.4393 53.07H35.9813L31.3084 34.2341H24.7664Z" fill="white"/>
<path d="M24.7664 34.2341L34.1122 15.3983H26.6356L17.0562 34.2341H24.7664Z" fill="white"/>
<path d="M77.57 15.3983H56.0747V21.5199H77.57V15.3983Z" fill="white"/>
<path d="M83.6449 31.4087H62.1495V37.5304H83.6449V31.4087Z" fill="white"/>
<path d="M83.6448 46.9483H56.0747V53.0699H83.6448V46.9483Z" fill="white"/>
<path d="M62.1495 37.5304H56.0747V46.9483H62.1495V37.5304Z" fill="white"/>
<path d="M83.645 21.5199H77.5702V31.4088H83.645V21.5199Z" fill="white"/>
<path d="M111.215 21.5334L126.635 21.5334V15.4118L111.215 15.4118V21.5334Z" fill="white"/>
<path d="M105.14 37.5439H126.635V31.4222L105.14 31.4222V37.5439Z" fill="white"/>
<path d="M105.14 53.0834H126.635V46.9618H105.14V53.0834Z" fill="white"/>
<path d="M126.635 46.9618H132.71V37.5438H126.635V46.9618Z" fill="white"/>
<path d="M105.14 31.4222H111.215V21.5334H105.14V31.4222Z" fill="white"/>
<path d="M179.907 53.07L197.196 15.3983H189.72L171.495 53.07H179.907Z" fill="white"/>
<path d="M172.383 34.2341L163.037 15.3983H170.514L180.14 34.2341H172.383Z" fill="white"/>
<path d="M49.5328 30.467H42.0562V38.0013H49.5328V30.467Z" fill="white"/>
<path d="M98.1309 30.467H90.6543V38.0013H98.1309V30.467Z" fill="white"/>
</g>
<defs>
<clipPath id="clip0_17_45">
<rect width="200" height="65.4545" fill="white"/>
</clipPath>
</defs>
</svg>
